<svg width="18" height="16" xmlns="http://www.w3.org/2000/svg"><path d="M15.864 12.9a.111.111 0 0 1-.11.114h-1.077c-.06 0-.11.05-.11.112v1.103c0 .062-.05.112-.11.112h-.65c-.06 0-.11-.05-.11-.112v-1.103a.112.112 0 0 0-.11-.112h-1.07a.112.112 0 0 1-.11-.113v-.651c0-.062.049-.113.11-.113h1.07c.06 0 .11-.05.11-.112v-1.11a.11.11 0 0 1 .11-.112h.65c.06 0 .11.05.11.112v1.11c0 .062.05.112.11.112h1.077c.062 0 .11.051.11.113v.65zm.67-2.458a3.216 3.216 0 0 0-.881-.726 3.089 3.089 0 0 0-1.519-.394c-.604 0-1.17.173-1.65.474a3.238 3.238 0 0 0-1.366 1.762 3.289 3.289 0 0 0-.159 1.005v.009a3.277 3.277 0 0 0 .775 2.126 3.136 3.136 0 0 0 2.4 1.123c1.754 0 3.176-1.455 3.176-3.249a3.28 3.28 0 0 0-.777-2.13zm-2.179-2.057v.493a3.526 3.526 0 0 0-1.872.402v-.895c0-.124.1-.225.22-.225h1.432c.121 0 .22.101.22.225zm-.22-.807h-1.43a.222.222 0 0 1-.221-.225V5.888c0-.124.098-.225.22-.225h1.43c.122 0 .22.101.22.225v1.465a.223.223 0 0 1-.22.225zm-3.115 3.117c-.318.55-.5 1.193-.5 1.877H9.466a.223.223 0 0 1-.22-.225v-1.465c0-.124.098-.225.22-.225h1.43c.046 0 .088.013.123.038zm-.122-.62h-1.43c-.122 0-.22-.1-.22-.225V8.385c0-.124.098-.225.22-.225h1.43c.122 0 .22.101.22.225V9.85a.223.223 0 0 1-.22.225zm0-2.497h-1.43c-.122 0-.22-.1-.22-.225V5.888c0-.124.098-.225.22-.225h1.43c.122 0 .22.101.22.225v1.465a.223.223 0 0 1-.22.225zM7.66 12.572H6.23a.222.222 0 0 1-.22-.225v-1.465c0-.124.098-.225.22-.225h1.43c.122 0 .22.1.22.225v1.465a.223.223 0 0 1-.22.225zm0-2.497H6.23c-.122 0-.22-.1-.22-.225V8.385c0-.124.098-.225.22-.225h1.43c.122 0 .22.101.22.225V9.85a.223.223 0 0 1-.22.225zm0-2.497H6.23c-.122 0-.22-.1-.22-.225V5.888c0-.124.098-.225.22-.225h1.43c.122 0 .22.101.22.225v1.465a.223.223 0 0 1-.22.225zm-3.237 4.994h-1.43a.222.222 0 0 1-.22-.225v-1.465c0-.124.098-.225.22-.225h1.43c.122 0 .22.1.22.225v1.465a.223.223 0 0 1-.22.225zm0-2.497h-1.43c-.122 0-.22-.1-.22-.225V8.385c0-.124.098-.225.22-.225h1.43c.122 0 .22.101.22.225V9.85a.223.223 0 0 1-.22.225zm0-2.497h-1.43c-.122 0-.22-.1-.22-.225V5.888c0-.124.098-.225.22-.225h1.43c.122 0 .22.101.22.225v1.465a.223.223 0 0 1-.22.225zm11.229-3.963H1.38v-1.58c0-.063.05-.113.11-.113h.969v.59c0 .25.197.451.44.451s.44-.202.44-.45v-.591h1.928v.58c0 .25.198.451.44.451.244 0 .44-.202.44-.45v-.581h1.93v.57c0 .25.197.45.44.45s.44-.2.44-.45v-.57h1.928v.6c0 .25.197.451.44.451.244 0 .44-.201.44-.45v-.601h1.93v.61c0 .25.196.451.44.451.243 0 .44-.201.44-.45v-.611h.968c.06 0 .11.05.11.112v1.581zm-.11-2.594h-.968V.49a.445.445 0 0 0-.44-.45.445.445 0 0 0-.44.45v.53h-1.93V.48a.445.445 0 0 0-.44-.45.445.445 0 0 0-.44.45v.54H8.957V.45a.445.445 0 0 0-.44-.45.445.445 0 0 0-.44.45v.57h-1.93V.46a.445.445 0 0 0-.44-.45.445.445 0 0 0-.44.45v.56H3.34V.47A.445.445 0 0 0 2.9.02a.445.445 0 0 0-.44.45v.55h-.97c-.545 0-.99.456-.99 1.014v11.651c0 .559.445 1.014.99 1.014h9.689a3.685 3.685 0 0 1-.455-.901H1.49a.112.112 0 0 1-.11-.113V4.516h14.273v4.699c.322.152.618.352.88.59v-7.77c0-.56-.444-1.014-.99-1.014z" fill="#333" fill-rule="evenodd"/></svg>