<svg width="33" height="30" xmlns="http://www.w3.org/2000/svg"><g stroke="#00ADEF" fill="none" fill-rule="evenodd" stroke-linecap="round"><path d="M14.329 26h17.634"/><path d="M19.75 24.17V11.062m2.95.189H6.844c-.756-.203-1.075-.39-1.2-.67-.127-.282-.034-.6.232-.8l11.768-8.328a.975.975 0 0 1 1.135 0l11.766 8.329c.266.198.36.517.233.8-.126.28-.366.447-.709.67l-3.635-.02v13.046H15.45V11.143m-5.7-.08v6.093m-8.476 5.46h5.443v-2.655l4.822 4.647-4.845 4.51V26.99H1.275z" stroke-linejoin="round"/></g></svg>