<svg width="28" height="31" xmlns="http://www.w3.org/2000/svg"><g stroke="#008099" fill="none" fill-rule="evenodd" stroke-linecap="round" stroke-linejoin="round"><path d="M.947 30.286c0-6.052 3.605-11.195 8.633-13.093-2.56-1.53-4.284-4.385-4.284-7.66l.087-.306a7.94 7.94 0 0 0 2.83.519c3.425 0 6.36-2.174 7.58-5.26l.006.057c1.006 1.705 2.823 2.843 4.896 2.843.399 0 .789-.043 1.163-.122"/><path d="M5.143 30.286h21.623c0-6.051-3.605-11.195-8.631-13.093 2.56-1.53 4.283-4.385 4.283-7.66 0-4.883-3.833-8.842-8.56-8.842-3.138 0-5.88 1.743-7.371 4.341"/></g></svg>