<svg width="22" height="23" xmlns="http://www.w3.org/2000/svg"><path d="M14.873 17.889h2.615m-7.815 0h2.615m-7.815 0h2.615m7.785-3.408h2.615m-7.815 0h2.615m-7.815 0h2.615m7.785-3.407h2.615m-7.815 0h2.615m-7.815 0h2.615M1.673 6.815h19.015m-5.195-4.259H13.21m-7.85.047H2.53c-.735 0-1.33.612-1.33 1.366v16.545c0 .754.595 1.366 1.33 1.366h16.96c.735 0 1.33-.612 1.33-1.366V3.969c0-.754-.595-1.366-1.33-1.366h-1.43m-7.933-.552H8.059m2.108 2.598V.615m-5 4.034V.615m10 4.034V.615" stroke="#00B4E3" fill="none" stroke-linecap="round" stroke-linejoin="round"/></svg>