<svg width="20" height="22" xmlns="http://www.w3.org/2000/svg"><g fill="#00B4E3" fill-rule="evenodd"><path d="M18.916 21.133a.496.496 0 0 1-.347-.14l-5.121-4.925a2.014 2.014 0 0 1-.055-2.845c2.766-2.88 2.677-7.453-.188-10.21a7.145 7.145 0 0 0-5.139-2.011 7.158 7.158 0 0 0-5.056 2.21c-2.756 2.866-2.667 7.44.198 10.196a7.24 7.24 0 0 0 6.985 1.736.505.505 0 0 1 .619.343.503.503 0 0 1-.344.619 8.246 8.246 0 0 1-7.953-1.977c-3.263-3.14-3.364-8.347-.226-11.61A8.157 8.157 0 0 1 8.047.003a8.18 8.18 0 0 1 5.851 2.292c3.263 3.138 3.364 8.346.226 11.609a1.019 1.019 0 0 0 .018 1.444l5.121 4.926a.5.5 0 0 1-.347.86"/><path d="M12.948 8.412a.5.5 0 0 1-.498-.46 4.321 4.321 0 0 0-1.313-2.774A4.307 4.307 0 0 0 6.749 4.2a4.273 4.273 0 0 0-1.726 1.097.5.5 0 0 1-.721-.693 5.348 5.348 0 0 1 2.126-1.352 5.31 5.31 0 0 1 5.402 1.205 5.318 5.318 0 0 1 1.617 3.415.5.5 0 0 1-.46.539l-.04.001"/></g></svg>