<svg width="28" height="32" xmlns="http://www.w3.org/2000/svg"><g stroke="#00B4E3" fill="none" fill-rule="evenodd" stroke-linecap="round" stroke-linejoin="round"><path d="M1.28 30.884c0-6.052 3.604-11.196 8.632-13.093-2.56-1.53-4.284-4.385-4.284-7.66l.088-.306a7.94 7.94 0 0 0 2.828.518c3.426 0 6.36-2.173 7.58-5.258l.007.056c1.006 1.704 2.823 2.843 4.896 2.843.399 0 .789-.043 1.163-.123"/><path d="M5.475 30.884h21.623c0-6.051-3.605-11.195-8.631-13.093 2.56-1.53 4.283-4.385 4.283-7.66 0-4.883-3.833-8.843-8.56-8.843-3.138.001-5.88 1.743-7.371 4.342"/></g></svg>