<svg width="38" height="50" xmlns="http://www.w3.org/2000/svg"><g fill="none" fill-rule="evenodd"><path d="M7.992 22.714h20.58m-20.58 6.857h11.802M7.992 36.429h17.895M3.996 8.173h.084a2.672 2.672 0 0 0-2.678 2.666v34.67a2.672 2.672 0 0 0 2.678 2.665h29.312a2.671 2.671 0 0 0 2.676-2.665v-34.67a2.671 2.671 0 0 0-2.676-2.666h-.477" stroke="#00B4E3" stroke-width="2" stroke-linecap="round" stroke-linejoin="round"/><path d="M21.503 5.097c.025-.163.05-.327.05-.497 0-1.767-1.443-3.2-3.221-3.2s-3.22 1.433-3.22 3.2c0 .17.024.334.05.497H9.475v5.467H27.19V5.097h-5.687z" stroke="#00B4E3" stroke-width="2" stroke-linecap="round" stroke-linejoin="round"/><path d="M19.125 5.562a.79.79 0 0 1-.793.788.79.79 0 0 1-.793-.788.79.79 0 0 1 .793-.787.79.79 0 0 1 .793.787" fill="#00ADEF"/></g></svg>