<svg width="50" height="50" xmlns="http://www.w3.org/2000/svg"><g fill="none" fill-rule="evenodd"><path d="M13.394 31.391a14.974 14.974 0 0 0 11.55 5.429c4.71 0 8.912-2.17 11.662-5.563" stroke="#00B4E3" stroke-width="2" stroke-linecap="round" stroke-linejoin="round"/><path d="M44.02 11.148A23.41 23.41 0 0 1 48.53 25c0 12.995-10.535 23.528-23.53 23.528C12.004 48.528 1.47 37.995 1.47 25S12.004 1.47 25 1.47a23.422 23.422 0 0 1 13.746 4.432" stroke="#00B4E3" stroke-width="2" stroke-linecap="round" stroke-linejoin="round"/><path d="M19.081 18.245a2.395 2.395 0 1 0-4.79.001 2.395 2.395 0 0 0 4.79 0m16.626-.001a2.395 2.395 0 1 0-4.79.001 2.395 2.395 0 0 0 4.79 0" fill="#00B4E3"/></g></svg>