<svg width="64" height="64" xmlns="http://www.w3.org/2000/svg"><g fill="none" fill-rule="evenodd"><path d="M17.009 47.094a19.34 19.34 0 0 1 14.92-7.012c6.082 0 11.51 2.802 15.062 7.186" stroke="#00ADEF" stroke-width="2" stroke-linecap="round" stroke-linejoin="round"/><path d="M56.568 14.108A30.239 30.239 0 0 1 62.392 32c0 16.785-13.607 30.391-30.392 30.391-16.786 0-30.392-13.606-30.392-30.39C1.608 15.214 15.214 1.607 32 1.607a30.253 30.253 0 0 1 17.755 5.725" stroke="#00ADEF" stroke-width="2" stroke-linecap="round" stroke-linejoin="round"/><path d="M23.014 22.605a2.423 2.423 0 1 0-4.845 0 2.423 2.423 0 0 0 4.845 0m21.474-.001a2.422 2.422 0 1 0-4.844.001 2.422 2.422 0 0 0 4.844 0" fill="#00ADEF"/></g></svg>