<svg width="26" height="26" xmlns="http://www.w3.org/2000/svg"><g stroke="#FFF" fill="none" fill-rule="evenodd" stroke-linecap="round" stroke-linejoin="round"><path d="M17.298 23.955c-1.331.522-2.781.81-4.298.81-6.497 0-11.765-5.268-11.765-11.765C1.235 6.503 6.503 1.235 13 1.235c6.498 0 11.765 5.268 11.765 11.765 0 3.581-1.6 6.79-4.125 8.946l-.298.172c-.48-2.77-2.309-4.84-4.8-5.778l-.134-.085a4.888 4.888 0 0 0 1.964-6.241"/><path d="M14.927 7.58a4.89 4.89 0 0 0-4.439 8.704l-.111.087c-2.43.948-4.267 3.164-4.76 5.876"/></g></svg>