<svg width="21" height="23" xmlns="http://www.w3.org/2000/svg"><path d="M6.25 11.66c.306.853.776 1.605 1.404 2.351l-.047-.055a7.825 7.825 0 0 0 4.994 2.732l1.426-1.199.272-.227c1.113-.936 3.34.368 3.808.925l1.133 1.347a1.448 1.448 0 0 1-.172 2.044l-.9.759s-1.14.957-1.645 1.383c-.508.426-1.467.31-1.909.204-3.633-.872-6.913-2.736-9.53-5.847l.048.056c-2.616-3.11-3.89-6.662-4.126-10.39-.028-.454.021-1.42.528-1.845l1.644-1.383.904-.76a1.446 1.446 0 0 1 2.042.183l1.133 1.348c.468.555 1.37 2.973.258 3.909l-.272.23L5.82 8.623" stroke="#00B4E3" fill="none" stroke-linecap="round" stroke-linejoin="round"/></svg>